<?xml version="1.0" standalone="no"?>
<!DOCTYPE svg PUBLIC "-//W3C//DTD SVG 20010904//EN"
 "http://www.w3.org/TR/2001/REC-SVG-20010904/DTD/svg10.dtd">
<svg version="1.0" xmlns="http://www.w3.org/2000/svg"
 width="64.000000pt" height="64.000000pt" viewBox="0 0 64.000000 64.000000"
 preserveAspectRatio="xMidYMid meet">

<g transform="translate(0.000000,64.000000) scale(0.100000,-0.100000)"
fill="#000000" stroke="none">
<path d="M495 540 c-4 -7 2 -22 14 -33 16 -17 23 -19 33 -9 9 9 10 17 2 30
-14 21 -40 27 -49 12z"/>
<path d="M125 515 c-25 -24 -25 -27 -25 -195 0 -168 0 -171 25 -195 24 -25 27
-25 195 -25 168 0 171 0 195 25 24 23 25 28 25 172 l0 147 -35 -34 -35 -34 0
-103 0 -103 -150 0 -150 0 0 150 0 150 103 0 103 0 34 35 34 35 -147 0 c-144
0 -149 -1 -172 -25z"/>
<path d="M378 423 c-50 -51 -90 -100 -94 -116 -6 -27 -5 -28 22 -21 18 4 65
41 118 95 89 87 90 88 71 109 -10 11 -21 20 -24 20 -4 0 -45 -39 -93 -87z"/>
</g>
</svg>
