<?xml version="1.0" standalone="no"?>
<!DOCTYPE svg PUBLIC "-//W3C//DTD SVG 20010904//EN"
 "http://www.w3.org/TR/2001/REC-SVG-20010904/DTD/svg10.dtd">
<svg version="1.0" xmlns="http://www.w3.org/2000/svg"
 width="78.000000pt" height="78.000000pt" viewBox="0 0 78.000000 78.000000"
 preserveAspectRatio="xMidYMid meet">

<g transform="translate(0.000000,78.000000) scale(0.100000,-0.100000)"
fill="#000000" stroke="none">
<path d="M362 628 c-8 -8 -12 -46 -12 -105 l0 -92 -96 -3 c-79 -2 -99 -6 -108
-21 -8 -12 -8 -22 0 -35 9 -14 29 -18 107 -20 l96 -3 3 -96 c2 -78 6 -98 21
-107 12 -8 22 -8 35 0 14 9 18 29 20 107 l3 96 96 3 c78 2 98 6 107 20 8 13 8
23 0 35 -9 15 -29 19 -108 21 l-96 3 0 92 c0 94 -8 117 -40 117 -9 0 -21 -5
-28 -12z"/>
</g>
</svg>
