<svg xmlns="http://www.w3.org/2000/svg" xmlns:xlink="http://www.w3.org/1999/xlink" width="500" zoomAndPan="magnify" viewBox="0 0 375 337.499995" height="450" preserveAspectRatio="xMidYMid meet" version="1.0"><defs><clipPath id="c643387fe1"><path d="M 155 0 L 374.625 0 L 374.625 220 L 155 220 Z M 155 0 " clip-rule="nonzero"/></clipPath><clipPath id="ab797cae54"><path d="M 36.878906 117 L 257 117 L 257 337 L 36.878906 337 Z M 36.878906 117 " clip-rule="nonzero"/></clipPath><clipPath id="48c53fe489"><path d="M 168 105.003906 L 259.683594 105.003906 L 259.683594 234.6875 L 168 234.6875 Z M 168 105.003906 " clip-rule="nonzero"/></clipPath><clipPath id="e8862f7053"><path d="M 151.84375 129 L 251 129 L 251 194 L 151.84375 194 Z M 151.84375 129 " clip-rule="nonzero"/></clipPath></defs><g clip-path="url(#c643387fe1)"><path fill="#12b5a6" d="M 374.71875 168.828125 C 374.71875 196.824219 352.058594 219.484375 324.0625 219.484375 L 220.3125 219.484375 C 184.449219 219.484375 155.328125 190.363281 155.328125 154.5 L 155.328125 50.75 C 155.328125 22.753906 177.988281 0.09375 205.984375 0.09375 C 233.984375 0.09375 256.644531 22.753906 256.644531 50.75 L 256.644531 118.171875 L 324.0625 118.171875 C 352.058594 118.171875 374.71875 140.925781 374.71875 168.828125 Z M 374.71875 168.828125 " fill-opacity="1" fill-rule="nonzero"/></g><g clip-path="url(#ab797cae54)"><path fill="#0893b0" d="M 36.878906 168.171875 C 36.878906 140.175781 59.539062 117.515625 87.535156 117.515625 L 191.285156 117.515625 C 227.148438 117.515625 256.269531 146.636719 256.269531 182.5 L 256.269531 286.25 C 256.269531 314.246094 233.609375 336.90625 205.613281 336.90625 C 177.613281 336.90625 154.953125 314.246094 154.953125 286.25 L 154.953125 218.832031 L 87.535156 218.832031 C 59.539062 218.832031 36.878906 196.171875 36.878906 168.171875 Z M 36.878906 168.171875 " fill-opacity="1" fill-rule="nonzero"/></g><path fill="#054c5b" d="M 256.269531 182.5 L 256.269531 219.484375 L 220.3125 219.484375 C 184.449219 219.484375 155.328125 190.363281 155.328125 154.5 L 155.328125 117.515625 L 191.285156 117.515625 C 227.148438 117.515625 256.269531 146.636719 256.269531 182.5 Z M 256.269531 182.5 " fill-opacity="1" fill-rule="nonzero"/><g clip-path="url(#48c53fe489)"><path fill="#ffffff" d="M 183.703125 226.386719 C 168.882812 211.128906 197.671875 158.328125 248.773438 105.003906 C 236.449219 112.050781 223.578125 121.773438 211.375 133.757812 C 174.886719 169.582031 158.183594 211.882812 174.066406 228.234375 C 188.636719 243.234375 225.570312 231.179688 259.738281 201.429688 C 223.980469 226.441406 194.207031 237.199219 183.703125 226.386719 " fill-opacity="1" fill-rule="nonzero"/></g><g clip-path="url(#e8862f7053)"><path fill="#ffffff" d="M 185.765625 129 C 173.328125 129 161.714844 130.800781 151.84375 133.914062 C 158.839844 132.589844 166.402344 131.863281 174.296875 131.863281 C 210.121094 131.863281 239.160156 146.765625 239.160156 165.140625 C 239.160156 177.136719 226.78125 187.652344 208.21875 193.507812 C 232.976562 188.820312 250.632812 176.609375 250.632812 162.277344 C 250.632812 143.902344 221.589844 129 185.765625 129 " fill-opacity="1" fill-rule="nonzero"/></g><path fill="#ffffff" d="M 211.363281 117.503906 C 211.363281 121.527344 208.121094 124.78125 204.125 124.78125 C 200.128906 124.78125 196.886719 121.527344 196.886719 117.503906 C 196.886719 113.484375 200.128906 110.226562 204.125 110.226562 C 208.121094 110.226562 211.363281 113.484375 211.363281 117.503906 " fill-opacity="1" fill-rule="nonzero"/></svg>