<svg xmlns="http://www.w3.org/2000/svg" xmlns:xlink="http://www.w3.org/1999/xlink" width="300" zoomAndPan="magnify" viewBox="0 0 224.87999 74.999997" height="100" preserveAspectRatio="xMidYMid meet" version="1.0"><defs><g/><clipPath id="9f491b2fa6"><path d="M 26 0.0195312 L 74.960938 0.0195312 L 74.960938 49 L 26 49 Z M 26 0.0195312 " clip-rule="nonzero"/></clipPath><clipPath id="73109a2de5"><path d="M 0 26 L 49 26 L 49 74.980469 L 0 74.980469 Z M 0 26 " clip-rule="nonzero"/></clipPath><clipPath id="8880fe4bc8"><path d="M 29.089844 23.375 L 49.558594 23.375 L 49.558594 52.214844 L 29.089844 52.214844 Z M 29.089844 23.375 " clip-rule="nonzero"/></clipPath><clipPath id="d1dd353bd2"><path d="M 25.570312 28 L 48 28 L 48 44 L 25.570312 44 Z M 25.570312 28 " clip-rule="nonzero"/></clipPath><clipPath id="45f7d6e493"><path d="M 104.789062 59.636719 L 110 59.636719 L 110 64.886719 L 104.789062 64.886719 Z M 104.789062 59.636719 " clip-rule="nonzero"/></clipPath><clipPath id="8c07af254a"><rect x="0" width="105" y="0" height="13"/></clipPath><clipPath id="578811e798"><rect x="0" width="68" y="0" height="8"/></clipPath></defs><g clip-path="url(#9f491b2fa6)"><path fill="#12b5a6" d="M 75.148438 37.574219 C 75.148438 43.800781 70.105469 48.839844 63.878906 48.839844 L 40.800781 48.839844 C 32.824219 48.839844 26.347656 42.363281 26.347656 34.386719 L 26.347656 11.308594 C 26.347656 5.082031 31.386719 0.0390625 37.617188 0.0390625 C 43.84375 0.0390625 48.882812 5.082031 48.882812 11.308594 L 48.882812 26.304688 L 63.878906 26.304688 C 70.105469 26.304688 75.148438 31.367188 75.148438 37.574219 Z M 75.148438 37.574219 " fill-opacity="1" fill-rule="nonzero"/></g><g clip-path="url(#73109a2de5)"><path fill="#0893b0" d="M 0 37.425781 C 0 31.199219 5.039062 26.160156 11.269531 26.160156 L 34.34375 26.160156 C 42.324219 26.160156 48.800781 32.636719 48.800781 40.613281 L 48.800781 63.691406 C 48.800781 69.917969 43.757812 74.960938 37.53125 74.960938 C 31.304688 74.960938 26.265625 69.917969 26.265625 63.691406 L 26.265625 48.695312 L 11.269531 48.695312 C 5.039062 48.695312 0 43.65625 0 37.425781 Z M 0 37.425781 " fill-opacity="1" fill-rule="nonzero"/></g><path fill="#054c5b" d="M 48.800781 40.613281 L 48.800781 48.839844 L 40.800781 48.839844 C 32.824219 48.839844 26.347656 42.363281 26.347656 34.386719 L 26.347656 26.160156 L 34.34375 26.160156 C 42.324219 26.160156 48.800781 32.636719 48.800781 40.613281 Z M 48.800781 40.613281 " fill-opacity="1" fill-rule="nonzero"/><g clip-path="url(#8880fe4bc8)"><path fill="#ffffff" d="M 32.65625 50.371094 C 29.363281 46.976562 35.765625 35.234375 47.128906 23.375 C 44.386719 24.941406 41.527344 27.105469 38.8125 29.769531 C 30.695312 37.734375 26.980469 47.144531 30.515625 50.78125 C 33.753906 54.117188 41.96875 51.433594 49.566406 44.820312 C 41.613281 50.382812 34.992188 52.773438 32.65625 50.371094 " fill-opacity="1" fill-rule="nonzero"/></g><g clip-path="url(#d1dd353bd2)"><path fill="#ffffff" d="M 33.117188 28.710938 C 30.351562 28.710938 27.765625 29.113281 25.570312 29.804688 C 27.128906 29.507812 28.808594 29.347656 30.566406 29.347656 C 38.53125 29.347656 44.992188 32.660156 44.992188 36.75 C 44.992188 39.417969 42.238281 41.753906 38.109375 43.058594 C 43.617188 42.015625 47.542969 39.300781 47.542969 36.113281 C 47.542969 32.023438 41.085938 28.710938 33.117188 28.710938 " fill-opacity="1" fill-rule="nonzero"/></g><path fill="#ffffff" d="M 38.808594 26.152344 C 38.808594 27.046875 38.089844 27.773438 37.199219 27.773438 C 36.308594 27.773438 35.589844 27.046875 35.589844 26.152344 C 35.589844 25.261719 36.308594 24.535156 37.199219 24.535156 C 38.089844 24.535156 38.808594 25.261719 38.808594 26.152344 " fill-opacity="1" fill-rule="nonzero"/><g clip-path="url(#45f7d6e493)"><path fill="#054c5b" d="M 107.347656 59.644531 C 105.941406 59.644531 104.792969 60.789062 104.792969 62.199219 C 104.792969 63.605469 105.941406 64.75 107.347656 64.75 C 108.757812 64.75 109.902344 63.605469 109.902344 62.199219 C 109.902344 60.789062 108.757812 59.644531 107.347656 59.644531 Z M 107.347656 64.273438 C 106.203125 64.273438 105.273438 63.34375 105.273438 62.199219 C 105.273438 61.050781 106.203125 60.121094 107.347656 60.121094 C 108.492188 60.121094 109.425781 61.050781 109.425781 62.199219 C 109.425781 63.34375 108.492188 64.273438 107.347656 64.273438 Z M 107.347656 64.273438 " fill-opacity="1" fill-rule="nonzero"/></g><path fill="#054c5b" d="M 108.421875 63.15625 L 108.191406 62.886719 C 108.175781 62.871094 108.160156 62.859375 108.148438 62.855469 C 108.121094 62.835938 108.09375 62.828125 108.066406 62.828125 L 108.050781 62.824219 C 108.007812 62.824219 107.964844 62.84375 107.933594 62.871094 C 107.769531 63.011719 107.5625 63.085938 107.347656 63.085938 C 107.132812 63.085938 106.925781 63.011719 106.765625 62.871094 C 106.585938 62.714844 106.476562 62.5 106.460938 62.261719 C 106.441406 62.023438 106.519531 61.792969 106.675781 61.613281 C 106.84375 61.417969 107.089844 61.308594 107.347656 61.308594 C 107.5625 61.308594 107.769531 61.386719 107.933594 61.523438 C 107.949219 61.539062 107.96875 61.550781 107.996094 61.558594 L 108.039062 61.570312 L 108.078125 61.566406 C 108.085938 61.566406 108.097656 61.5625 108.105469 61.5625 L 108.128906 61.550781 C 108.144531 61.546875 108.15625 61.535156 108.171875 61.527344 L 108.421875 61.238281 C 108.488281 61.164062 108.480469 61.046875 108.40625 60.980469 C 108.082031 60.699219 107.660156 60.558594 107.234375 60.589844 C 106.804688 60.621094 106.414062 60.816406 106.128906 61.140625 C 105.847656 61.464844 105.710938 61.882812 105.742188 62.3125 C 105.769531 62.742188 105.964844 63.132812 106.292969 63.414062 C 106.582031 63.667969 106.957031 63.808594 107.347656 63.808594 C 107.738281 63.808594 108.113281 63.667969 108.40625 63.414062 C 108.480469 63.347656 108.488281 63.234375 108.421875 63.15625 Z M 108.421875 63.15625 " fill-opacity="1" fill-rule="nonzero"/><g fill="#054c5b" fill-opacity="1"><g transform="translate(78.603957, 32.85248)"><g><path d="M 7.96875 -1.984375 L 3.78125 -1.984375 L 3.109375 0 L 0.25 0 L 4.3125 -11.21875 L 7.484375 -11.21875 L 11.546875 0 L 8.640625 0 Z M 7.265625 -4.09375 L 5.875 -8.203125 L 4.5 -4.09375 Z M 7.265625 -4.09375 "/></g></g></g><g fill="#054c5b" fill-opacity="1"><g transform="translate(90.130978, 32.85248)"><g><path d="M 5 -2.5625 L 6.9375 -8.921875 L 9.84375 -8.921875 L 6.6875 0 L 3.3125 0 L 0.140625 -8.921875 L 3.0625 -8.921875 Z M 5 -2.5625 "/></g></g></g><g fill="#054c5b" fill-opacity="1"><g transform="translate(99.883372, 32.85248)"><g><path d="M 2.359375 -9.84375 C 1.878906 -9.84375 1.488281 -9.984375 1.1875 -10.265625 C 0.882812 -10.546875 0.734375 -10.894531 0.734375 -11.3125 C 0.734375 -11.738281 0.882812 -12.09375 1.1875 -12.375 C 1.488281 -12.65625 1.878906 -12.796875 2.359375 -12.796875 C 2.828125 -12.796875 3.210938 -12.65625 3.515625 -12.375 C 3.828125 -12.09375 3.984375 -11.738281 3.984375 -11.3125 C 3.984375 -10.894531 3.828125 -10.546875 3.515625 -10.265625 C 3.210938 -9.984375 2.828125 -9.84375 2.359375 -9.84375 Z M 3.71875 -8.921875 L 3.71875 0 L 0.984375 0 L 0.984375 -8.921875 Z M 3.71875 -8.921875 "/></g></g></g><g fill="#054c5b" fill-opacity="1"><g transform="translate(104.343867, 32.85248)"><g><path d="M 6.421875 -9.015625 C 7.460938 -9.015625 8.296875 -8.675781 8.921875 -8 C 9.546875 -7.320312 9.859375 -6.390625 9.859375 -5.203125 L 9.859375 0 L 7.140625 0 L 7.140625 -4.84375 C 7.140625 -5.4375 6.984375 -5.898438 6.671875 -6.234375 C 6.367188 -6.566406 5.957031 -6.734375 5.4375 -6.734375 C 4.914062 -6.734375 4.5 -6.566406 4.1875 -6.234375 C 3.875 -5.898438 3.71875 -5.4375 3.71875 -4.84375 L 3.71875 0 L 0.984375 0 L 0.984375 -8.921875 L 3.71875 -8.921875 L 3.71875 -7.734375 C 4 -8.128906 4.375 -8.441406 4.84375 -8.671875 C 5.3125 -8.898438 5.835938 -9.015625 6.421875 -9.015625 Z M 6.421875 -9.015625 "/></g></g></g><g fill="#054c5b" fill-opacity="1"><g transform="translate(114.86367, 32.85248)"><g><path d="M 0.453125 -4.46875 C 0.453125 -5.382812 0.625 -6.1875 0.96875 -6.875 C 1.3125 -7.570312 1.78125 -8.109375 2.375 -8.484375 C 2.976562 -8.859375 3.644531 -9.046875 4.375 -9.046875 C 5.007812 -9.046875 5.5625 -8.914062 6.03125 -8.65625 C 6.507812 -8.40625 6.875 -8.070312 7.125 -7.65625 L 7.125 -8.921875 L 9.859375 -8.921875 L 9.859375 0 L 7.125 0 L 7.125 -1.265625 C 6.863281 -0.847656 6.492188 -0.507812 6.015625 -0.25 C 5.546875 0 4.992188 0.125 4.359375 0.125 C 3.640625 0.125 2.976562 -0.0625 2.375 -0.4375 C 1.78125 -0.8125 1.3125 -1.347656 0.96875 -2.046875 C 0.625 -2.742188 0.453125 -3.550781 0.453125 -4.46875 Z M 7.125 -4.453125 C 7.125 -5.140625 6.9375 -5.679688 6.5625 -6.078125 C 6.1875 -6.472656 5.722656 -6.671875 5.171875 -6.671875 C 4.628906 -6.671875 4.171875 -6.472656 3.796875 -6.078125 C 3.421875 -5.691406 3.234375 -5.15625 3.234375 -4.46875 C 3.234375 -3.789062 3.421875 -3.25 3.796875 -2.84375 C 4.171875 -2.445312 4.628906 -2.25 5.171875 -2.25 C 5.722656 -2.25 6.1875 -2.445312 6.5625 -2.84375 C 6.9375 -3.238281 7.125 -3.773438 7.125 -4.453125 Z M 7.125 -4.453125 "/></g></g></g><g fill="#054c5b" fill-opacity="1"><g transform="translate(125.463413, 32.85248)"><g><path d="M 12.375 -9.015625 C 13.476562 -9.015625 14.359375 -8.675781 15.015625 -8 C 15.671875 -7.332031 16 -6.398438 16 -5.203125 L 16 0 L 13.28125 0 L 13.28125 -4.84375 C 13.28125 -5.414062 13.128906 -5.859375 12.828125 -6.171875 C 12.523438 -6.492188 12.109375 -6.65625 11.578125 -6.65625 C 11.035156 -6.65625 10.613281 -6.492188 10.3125 -6.171875 C 10.007812 -5.859375 9.859375 -5.414062 9.859375 -4.84375 L 9.859375 0 L 7.140625 0 L 7.140625 -4.84375 C 7.140625 -5.414062 6.988281 -5.859375 6.6875 -6.171875 C 6.382812 -6.492188 5.96875 -6.65625 5.4375 -6.65625 C 4.90625 -6.65625 4.484375 -6.492188 4.171875 -6.171875 C 3.867188 -5.859375 3.71875 -5.414062 3.71875 -4.84375 L 3.71875 0 L 0.984375 0 L 0.984375 -8.921875 L 3.71875 -8.921875 L 3.71875 -7.796875 C 4 -8.171875 4.363281 -8.46875 4.8125 -8.6875 C 5.257812 -8.90625 5.765625 -9.015625 6.328125 -9.015625 C 7.003906 -9.015625 7.601562 -8.867188 8.125 -8.578125 C 8.65625 -8.296875 9.066406 -7.890625 9.359375 -7.359375 C 9.671875 -7.847656 10.09375 -8.242188 10.625 -8.546875 C 11.15625 -8.859375 11.738281 -9.015625 12.375 -9.015625 Z M 12.375 -9.015625 "/></g></g></g><g fill="#054c5b" fill-opacity="1"><g transform="translate(142.138454, 32.85248)"><g/></g></g><g fill="#054c5b" fill-opacity="1"><g transform="translate(145.271971, 32.85248)"><g><path d="M 9.546875 -7.609375 C 9.546875 -6.960938 9.394531 -6.367188 9.09375 -5.828125 C 8.789062 -5.285156 8.332031 -4.847656 7.71875 -4.515625 C 7.101562 -4.191406 6.335938 -4.03125 5.421875 -4.03125 L 3.71875 -4.03125 L 3.71875 0 L 0.984375 0 L 0.984375 -11.21875 L 5.421875 -11.21875 C 6.316406 -11.21875 7.070312 -11.0625 7.6875 -10.75 C 8.300781 -10.445312 8.765625 -10.019531 9.078125 -9.46875 C 9.390625 -8.925781 9.546875 -8.304688 9.546875 -7.609375 Z M 5.203125 -6.203125 C 5.734375 -6.203125 6.125 -6.320312 6.375 -6.5625 C 6.632812 -6.8125 6.765625 -7.160156 6.765625 -7.609375 C 6.765625 -8.054688 6.632812 -8.398438 6.375 -8.640625 C 6.125 -8.890625 5.734375 -9.015625 5.203125 -9.015625 L 3.71875 -9.015625 L 3.71875 -6.203125 Z M 5.203125 -6.203125 "/></g></g></g><g fill="#054c5b" fill-opacity="1"><g transform="translate(154.992396, 32.85248)"><g><path d="M 6.46875 -9.015625 C 7.5 -9.015625 8.320312 -8.675781 8.9375 -8 C 9.550781 -7.320312 9.859375 -6.390625 9.859375 -5.203125 L 9.859375 0 L 7.140625 0 L 7.140625 -4.84375 C 7.140625 -5.4375 6.984375 -5.898438 6.671875 -6.234375 C 6.367188 -6.566406 5.957031 -6.734375 5.4375 -6.734375 C 4.914062 -6.734375 4.5 -6.566406 4.1875 -6.234375 C 3.875 -5.898438 3.71875 -5.4375 3.71875 -4.84375 L 3.71875 0 L 0.984375 0 L 0.984375 -11.828125 L 3.71875 -11.828125 L 3.71875 -7.71875 C 4 -8.113281 4.378906 -8.425781 4.859375 -8.65625 C 5.335938 -8.894531 5.875 -9.015625 6.46875 -9.015625 Z M 6.46875 -9.015625 "/></g></g></g><g fill="#054c5b" fill-opacity="1"><g transform="translate(165.512199, 32.85248)"><g><path d="M 0.453125 -4.46875 C 0.453125 -5.382812 0.625 -6.1875 0.96875 -6.875 C 1.3125 -7.570312 1.78125 -8.109375 2.375 -8.484375 C 2.976562 -8.859375 3.644531 -9.046875 4.375 -9.046875 C 5.007812 -9.046875 5.5625 -8.914062 6.03125 -8.65625 C 6.507812 -8.40625 6.875 -8.070312 7.125 -7.65625 L 7.125 -8.921875 L 9.859375 -8.921875 L 9.859375 0 L 7.125 0 L 7.125 -1.265625 C 6.863281 -0.847656 6.492188 -0.507812 6.015625 -0.25 C 5.546875 0 4.992188 0.125 4.359375 0.125 C 3.640625 0.125 2.976562 -0.0625 2.375 -0.4375 C 1.78125 -0.8125 1.3125 -1.347656 0.96875 -2.046875 C 0.625 -2.742188 0.453125 -3.550781 0.453125 -4.46875 Z M 7.125 -4.453125 C 7.125 -5.140625 6.9375 -5.679688 6.5625 -6.078125 C 6.1875 -6.472656 5.722656 -6.671875 5.171875 -6.671875 C 4.628906 -6.671875 4.171875 -6.472656 3.796875 -6.078125 C 3.421875 -5.691406 3.234375 -5.15625 3.234375 -4.46875 C 3.234375 -3.789062 3.421875 -3.25 3.796875 -2.84375 C 4.171875 -2.445312 4.628906 -2.25 5.171875 -2.25 C 5.722656 -2.25 6.1875 -2.445312 6.5625 -2.84375 C 6.9375 -3.238281 7.125 -3.773438 7.125 -4.453125 Z M 7.125 -4.453125 "/></g></g></g><g fill="#054c5b" fill-opacity="1"><g transform="translate(176.111942, 32.85248)"><g><path d="M 3.71875 -7.4375 C 4.039062 -7.925781 4.441406 -8.3125 4.921875 -8.59375 C 5.398438 -8.875 5.929688 -9.015625 6.515625 -9.015625 L 6.515625 -6.125 L 5.765625 -6.125 C 5.085938 -6.125 4.578125 -5.976562 4.234375 -5.6875 C 3.890625 -5.394531 3.71875 -4.878906 3.71875 -4.140625 L 3.71875 0 L 0.984375 0 L 0.984375 -8.921875 L 3.71875 -8.921875 Z M 3.71875 -7.4375 "/></g></g></g><g fill="#054c5b" fill-opacity="1"><g transform="translate(182.698793, 32.85248)"><g><path d="M 12.375 -9.015625 C 13.476562 -9.015625 14.359375 -8.675781 15.015625 -8 C 15.671875 -7.332031 16 -6.398438 16 -5.203125 L 16 0 L 13.28125 0 L 13.28125 -4.84375 C 13.28125 -5.414062 13.128906 -5.859375 12.828125 -6.171875 C 12.523438 -6.492188 12.109375 -6.65625 11.578125 -6.65625 C 11.035156 -6.65625 10.613281 -6.492188 10.3125 -6.171875 C 10.007812 -5.859375 9.859375 -5.414062 9.859375 -4.84375 L 9.859375 0 L 7.140625 0 L 7.140625 -4.84375 C 7.140625 -5.414062 6.988281 -5.859375 6.6875 -6.171875 C 6.382812 -6.492188 5.96875 -6.65625 5.4375 -6.65625 C 4.90625 -6.65625 4.484375 -6.492188 4.171875 -6.171875 C 3.867188 -5.859375 3.71875 -5.414062 3.71875 -4.84375 L 3.71875 0 L 0.984375 0 L 0.984375 -8.921875 L 3.71875 -8.921875 L 3.71875 -7.796875 C 4 -8.171875 4.363281 -8.46875 4.8125 -8.6875 C 5.257812 -8.90625 5.765625 -9.015625 6.328125 -9.015625 C 7.003906 -9.015625 7.601562 -8.867188 8.125 -8.578125 C 8.65625 -8.296875 9.066406 -7.890625 9.359375 -7.359375 C 9.671875 -7.847656 10.09375 -8.242188 10.625 -8.546875 C 11.15625 -8.859375 11.738281 -9.015625 12.375 -9.015625 Z M 12.375 -9.015625 "/></g></g></g><g fill="#054c5b" fill-opacity="1"><g transform="translate(199.373834, 32.85248)"><g><path d="M 0.453125 -4.46875 C 0.453125 -5.382812 0.625 -6.1875 0.96875 -6.875 C 1.3125 -7.570312 1.78125 -8.109375 2.375 -8.484375 C 2.976562 -8.859375 3.644531 -9.046875 4.375 -9.046875 C 5.007812 -9.046875 5.5625 -8.914062 6.03125 -8.65625 C 6.507812 -8.40625 6.875 -8.070312 7.125 -7.65625 L 7.125 -8.921875 L 9.859375 -8.921875 L 9.859375 0 L 7.125 0 L 7.125 -1.265625 C 6.863281 -0.847656 6.492188 -0.507812 6.015625 -0.25 C 5.546875 0 4.992188 0.125 4.359375 0.125 C 3.640625 0.125 2.976562 -0.0625 2.375 -0.4375 C 1.78125 -0.8125 1.3125 -1.347656 0.96875 -2.046875 C 0.625 -2.742188 0.453125 -3.550781 0.453125 -4.46875 Z M 7.125 -4.453125 C 7.125 -5.140625 6.9375 -5.679688 6.5625 -6.078125 C 6.1875 -6.472656 5.722656 -6.671875 5.171875 -6.671875 C 4.628906 -6.671875 4.171875 -6.472656 3.796875 -6.078125 C 3.421875 -5.691406 3.234375 -5.15625 3.234375 -4.46875 C 3.234375 -3.789062 3.421875 -3.25 3.796875 -2.84375 C 4.171875 -2.445312 4.628906 -2.25 5.171875 -2.25 C 5.722656 -2.25 6.1875 -2.445312 6.5625 -2.84375 C 6.9375 -3.238281 7.125 -3.773438 7.125 -4.453125 Z M 7.125 -4.453125 "/></g></g></g><g fill="#054c5b" fill-opacity="1"><g transform="translate(209.973577, 32.85248)"><g><path d="M 7.859375 0 L 5.578125 -3.4375 L 3.5625 0 L 0.46875 0 L 4.0625 -5.703125 L 0.390625 -11.21875 L 3.5625 -11.21875 L 5.8125 -7.828125 L 7.796875 -11.21875 L 10.90625 -11.21875 L 7.34375 -5.5625 L 11.046875 0 Z M 7.859375 0 "/></g></g></g><g transform="matrix(1, 0, 0, 1, 98, 38)"><g clip-path="url(#8c07af254a)"><g fill="#054c5b" fill-opacity="1"><g transform="translate(0.832284, 8.667746)"><g><path d="M 6.859375 -5.609375 L 6.859375 0 L 5.484375 0 L 5.484375 -3.375 L 4.234375 0 L 3.125 0 L 1.859375 -3.375 L 1.859375 0 L 0.5 0 L 0.5 -5.609375 L 2.109375 -5.609375 L 3.6875 -1.734375 L 5.25 -5.609375 Z M 6.859375 -5.609375 "/></g></g></g><g fill="#054c5b" fill-opacity="1"><g transform="translate(8.884063, 8.667746)"><g><path d="M 0.21875 -2.234375 C 0.21875 -2.691406 0.304688 -3.09375 0.484375 -3.4375 C 0.660156 -3.789062 0.894531 -4.0625 1.1875 -4.25 C 1.488281 -4.4375 1.820312 -4.53125 2.1875 -4.53125 C 2.5 -4.53125 2.773438 -4.460938 3.015625 -4.328125 C 3.253906 -4.203125 3.4375 -4.035156 3.5625 -3.828125 L 3.5625 -4.46875 L 4.9375 -4.46875 L 4.9375 0 L 3.5625 0 L 3.5625 -0.625 C 3.4375 -0.414062 3.253906 -0.25 3.015625 -0.125 C 2.773438 0 2.5 0.0625 2.1875 0.0625 C 1.820312 0.0625 1.488281 -0.03125 1.1875 -0.21875 C 0.894531 -0.40625 0.660156 -0.671875 0.484375 -1.015625 C 0.304688 -1.367188 0.21875 -1.773438 0.21875 -2.234375 Z M 3.5625 -2.234375 C 3.5625 -2.578125 3.46875 -2.847656 3.28125 -3.046875 C 3.09375 -3.242188 2.863281 -3.34375 2.59375 -3.34375 C 2.320312 -3.34375 2.085938 -3.242188 1.890625 -3.046875 C 1.703125 -2.847656 1.609375 -2.578125 1.609375 -2.234375 C 1.609375 -1.898438 1.703125 -1.628906 1.890625 -1.421875 C 2.085938 -1.222656 2.320312 -1.125 2.59375 -1.125 C 2.863281 -1.125 3.09375 -1.222656 3.28125 -1.421875 C 3.46875 -1.617188 3.5625 -1.890625 3.5625 -2.234375 Z M 3.5625 -2.234375 "/></g></g></g><g fill="#054c5b" fill-opacity="1"><g transform="translate(15.024837, 8.667746)"><g><path d="M 3.21875 -4.515625 C 3.738281 -4.515625 4.15625 -4.34375 4.46875 -4 C 4.78125 -3.664062 4.9375 -3.203125 4.9375 -2.609375 L 4.9375 0 L 3.578125 0 L 3.578125 -2.421875 C 3.578125 -2.722656 3.5 -2.957031 3.34375 -3.125 C 3.1875 -3.289062 2.976562 -3.375 2.71875 -3.375 C 2.457031 -3.375 2.25 -3.289062 2.09375 -3.125 C 1.9375 -2.957031 1.859375 -2.722656 1.859375 -2.421875 L 1.859375 0 L 0.5 0 L 0.5 -4.46875 L 1.859375 -4.46875 L 1.859375 -3.875 C 2.003906 -4.070312 2.191406 -4.226562 2.421875 -4.34375 C 2.660156 -4.457031 2.925781 -4.515625 3.21875 -4.515625 Z M 3.21875 -4.515625 "/></g></g></g><g fill="#054c5b" fill-opacity="1"><g transform="translate(21.125634, 8.667746)"><g><path d="M 0.21875 -2.234375 C 0.21875 -2.691406 0.304688 -3.09375 0.484375 -3.4375 C 0.660156 -3.789062 0.894531 -4.0625 1.1875 -4.25 C 1.488281 -4.4375 1.820312 -4.53125 2.1875 -4.53125 C 2.5 -4.53125 2.773438 -4.460938 3.015625 -4.328125 C 3.253906 -4.203125 3.4375 -4.035156 3.5625 -3.828125 L 3.5625 -4.46875 L 4.9375 -4.46875 L 4.9375 0 L 3.5625 0 L 3.5625 -0.625 C 3.4375 -0.414062 3.253906 -0.25 3.015625 -0.125 C 2.773438 0 2.5 0.0625 2.1875 0.0625 C 1.820312 0.0625 1.488281 -0.03125 1.1875 -0.21875 C 0.894531 -0.40625 0.660156 -0.671875 0.484375 -1.015625 C 0.304688 -1.367188 0.21875 -1.773438 0.21875 -2.234375 Z M 3.5625 -2.234375 C 3.5625 -2.578125 3.46875 -2.847656 3.28125 -3.046875 C 3.09375 -3.242188 2.863281 -3.34375 2.59375 -3.34375 C 2.320312 -3.34375 2.085938 -3.242188 1.890625 -3.046875 C 1.703125 -2.847656 1.609375 -2.578125 1.609375 -2.234375 C 1.609375 -1.898438 1.703125 -1.628906 1.890625 -1.421875 C 2.085938 -1.222656 2.320312 -1.125 2.59375 -1.125 C 2.863281 -1.125 3.09375 -1.222656 3.28125 -1.421875 C 3.46875 -1.617188 3.5625 -1.890625 3.5625 -2.234375 Z M 3.5625 -2.234375 "/></g></g></g><g fill="#054c5b" fill-opacity="1"><g transform="translate(27.266408, 8.667746)"><g><path d="M 2.1875 -4.53125 C 2.5 -4.53125 2.773438 -4.460938 3.015625 -4.328125 C 3.253906 -4.203125 3.4375 -4.035156 3.5625 -3.828125 L 3.5625 -4.46875 L 4.9375 -4.46875 L 4.9375 -0.015625 C 4.9375 0.398438 4.851562 0.773438 4.6875 1.109375 C 4.53125 1.441406 4.285156 1.707031 3.953125 1.90625 C 3.617188 2.101562 3.203125 2.203125 2.703125 2.203125 C 2.046875 2.203125 1.507812 2.046875 1.09375 1.734375 C 0.6875 1.421875 0.453125 1 0.390625 0.46875 L 1.75 0.46875 C 1.789062 0.632812 1.890625 0.765625 2.046875 0.859375 C 2.203125 0.960938 2.398438 1.015625 2.640625 1.015625 C 2.921875 1.015625 3.144531 0.929688 3.3125 0.765625 C 3.476562 0.609375 3.5625 0.347656 3.5625 -0.015625 L 3.5625 -0.640625 C 3.4375 -0.429688 3.253906 -0.257812 3.015625 -0.125 C 2.773438 0 2.5 0.0625 2.1875 0.0625 C 1.820312 0.0625 1.488281 -0.03125 1.1875 -0.21875 C 0.894531 -0.40625 0.660156 -0.671875 0.484375 -1.015625 C 0.304688 -1.367188 0.21875 -1.773438 0.21875 -2.234375 C 0.21875 -2.691406 0.304688 -3.09375 0.484375 -3.4375 C 0.660156 -3.789062 0.894531 -4.0625 1.1875 -4.25 C 1.488281 -4.4375 1.820312 -4.53125 2.1875 -4.53125 Z M 3.5625 -2.234375 C 3.5625 -2.578125 3.46875 -2.847656 3.28125 -3.046875 C 3.09375 -3.242188 2.863281 -3.34375 2.59375 -3.34375 C 2.320312 -3.34375 2.085938 -3.242188 1.890625 -3.046875 C 1.703125 -2.847656 1.609375 -2.578125 1.609375 -2.234375 C 1.609375 -1.898438 1.703125 -1.628906 1.890625 -1.421875 C 2.085938 -1.222656 2.320312 -1.125 2.59375 -1.125 C 2.863281 -1.125 3.09375 -1.222656 3.28125 -1.421875 C 3.46875 -1.617188 3.5625 -1.890625 3.5625 -2.234375 Z M 3.5625 -2.234375 "/></g></g></g><g fill="#054c5b" fill-opacity="1"><g transform="translate(33.407183, 8.667746)"><g><path d="M 4.703125 -2.296875 C 4.703125 -2.171875 4.695312 -2.039062 4.6875 -1.90625 L 1.578125 -1.90625 C 1.597656 -1.625 1.6875 -1.410156 1.84375 -1.265625 C 2.007812 -1.117188 2.207031 -1.046875 2.4375 -1.046875 C 2.769531 -1.046875 3.003906 -1.191406 3.140625 -1.484375 L 4.59375 -1.484375 C 4.519531 -1.191406 4.382812 -0.925781 4.1875 -0.6875 C 4 -0.457031 3.757812 -0.273438 3.46875 -0.140625 C 3.175781 -0.00390625 2.847656 0.0625 2.484375 0.0625 C 2.046875 0.0625 1.65625 -0.03125 1.3125 -0.21875 C 0.96875 -0.40625 0.695312 -0.671875 0.5 -1.015625 C 0.3125 -1.359375 0.21875 -1.765625 0.21875 -2.234375 C 0.21875 -2.691406 0.3125 -3.09375 0.5 -3.4375 C 0.695312 -3.789062 0.960938 -4.0625 1.296875 -4.25 C 1.640625 -4.4375 2.035156 -4.53125 2.484375 -4.53125 C 2.910156 -4.53125 3.289062 -4.4375 3.625 -4.25 C 3.96875 -4.070312 4.234375 -3.8125 4.421875 -3.46875 C 4.609375 -3.132812 4.703125 -2.742188 4.703125 -2.296875 Z M 3.296875 -2.65625 C 3.296875 -2.894531 3.21875 -3.082031 3.0625 -3.21875 C 2.90625 -3.363281 2.707031 -3.4375 2.46875 -3.4375 C 2.238281 -3.4375 2.039062 -3.367188 1.875 -3.234375 C 1.71875 -3.097656 1.625 -2.90625 1.59375 -2.65625 Z M 3.296875 -2.65625 "/></g></g></g><g fill="#054c5b" fill-opacity="1"><g transform="translate(39.044226, 8.667746)"><g><path d="M 1.140625 0.0625 C 0.898438 0.0625 0.703125 -0.00390625 0.546875 -0.140625 C 0.390625 -0.285156 0.3125 -0.460938 0.3125 -0.671875 C 0.3125 -0.878906 0.390625 -1.054688 0.546875 -1.203125 C 0.703125 -1.347656 0.898438 -1.421875 1.140625 -1.421875 C 1.367188 -1.421875 1.554688 -1.347656 1.703125 -1.203125 C 1.859375 -1.054688 1.9375 -0.878906 1.9375 -0.671875 C 1.9375 -0.460938 1.859375 -0.285156 1.703125 -0.140625 C 1.554688 -0.00390625 1.367188 0.0625 1.140625 0.0625 Z M 1.140625 0.0625 "/></g></g></g><g fill="#054c5b" fill-opacity="1"><g transform="translate(42.01066, 8.667746)"><g/></g></g><g fill="#054c5b" fill-opacity="1"><g transform="translate(44.417392, 8.667746)"><g><path d="M 2.53125 0.0625 C 2.113281 0.0625 1.742188 -0.00390625 1.421875 -0.140625 C 1.097656 -0.273438 0.835938 -0.472656 0.640625 -0.734375 C 0.453125 -0.992188 0.351562 -1.3125 0.34375 -1.6875 L 1.796875 -1.6875 C 1.816406 -1.476562 1.882812 -1.316406 2 -1.203125 C 2.125 -1.097656 2.285156 -1.046875 2.484375 -1.046875 C 2.691406 -1.046875 2.851562 -1.085938 2.96875 -1.171875 C 3.082031 -1.265625 3.140625 -1.394531 3.140625 -1.5625 C 3.140625 -1.707031 3.09375 -1.820312 3 -1.90625 C 2.90625 -2 2.789062 -2.070312 2.65625 -2.125 C 2.519531 -2.1875 2.328125 -2.257812 2.078125 -2.34375 C 1.710938 -2.445312 1.414062 -2.554688 1.1875 -2.671875 C 0.957031 -2.785156 0.757812 -2.953125 0.59375 -3.171875 C 0.4375 -3.390625 0.359375 -3.675781 0.359375 -4.03125 C 0.359375 -4.550781 0.546875 -4.957031 0.921875 -5.25 C 1.296875 -5.550781 1.789062 -5.703125 2.40625 -5.703125 C 3.019531 -5.703125 3.515625 -5.550781 3.890625 -5.25 C 4.273438 -4.957031 4.476562 -4.546875 4.5 -4.015625 L 3.03125 -4.015625 C 3.019531 -4.191406 2.953125 -4.332031 2.828125 -4.4375 C 2.703125 -4.539062 2.546875 -4.59375 2.359375 -4.59375 C 2.191406 -4.59375 2.054688 -4.550781 1.953125 -4.46875 C 1.847656 -4.382812 1.796875 -4.257812 1.796875 -4.09375 C 1.796875 -3.90625 1.878906 -3.757812 2.046875 -3.65625 C 2.222656 -3.5625 2.492188 -3.457031 2.859375 -3.34375 C 3.222656 -3.21875 3.515625 -3.097656 3.734375 -2.984375 C 3.960938 -2.867188 4.160156 -2.703125 4.328125 -2.484375 C 4.492188 -2.273438 4.578125 -2.003906 4.578125 -1.671875 C 4.578125 -1.347656 4.492188 -1.054688 4.328125 -0.796875 C 4.171875 -0.535156 3.9375 -0.328125 3.625 -0.171875 C 3.3125 -0.015625 2.945312 0.0625 2.53125 0.0625 Z M 2.53125 0.0625 "/></g></g></g><g fill="#054c5b" fill-opacity="1"><g transform="translate(50.046435, 8.667746)"><g><path d="M 4.703125 -2.296875 C 4.703125 -2.171875 4.695312 -2.039062 4.6875 -1.90625 L 1.578125 -1.90625 C 1.597656 -1.625 1.6875 -1.410156 1.84375 -1.265625 C 2.007812 -1.117188 2.207031 -1.046875 2.4375 -1.046875 C 2.769531 -1.046875 3.003906 -1.191406 3.140625 -1.484375 L 4.59375 -1.484375 C 4.519531 -1.191406 4.382812 -0.925781 4.1875 -0.6875 C 4 -0.457031 3.757812 -0.273438 3.46875 -0.140625 C 3.175781 -0.00390625 2.847656 0.0625 2.484375 0.0625 C 2.046875 0.0625 1.65625 -0.03125 1.3125 -0.21875 C 0.96875 -0.40625 0.695312 -0.671875 0.5 -1.015625 C 0.3125 -1.359375 0.21875 -1.765625 0.21875 -2.234375 C 0.21875 -2.691406 0.3125 -3.09375 0.5 -3.4375 C 0.695312 -3.789062 0.960938 -4.0625 1.296875 -4.25 C 1.640625 -4.4375 2.035156 -4.53125 2.484375 -4.53125 C 2.910156 -4.53125 3.289062 -4.4375 3.625 -4.25 C 3.96875 -4.070312 4.234375 -3.8125 4.421875 -3.46875 C 4.609375 -3.132812 4.703125 -2.742188 4.703125 -2.296875 Z M 3.296875 -2.65625 C 3.296875 -2.894531 3.21875 -3.082031 3.0625 -3.21875 C 2.90625 -3.363281 2.707031 -3.4375 2.46875 -3.4375 C 2.238281 -3.4375 2.039062 -3.367188 1.875 -3.234375 C 1.71875 -3.097656 1.625 -2.90625 1.59375 -2.65625 Z M 3.296875 -2.65625 "/></g></g></g><g fill="#054c5b" fill-opacity="1"><g transform="translate(55.683478, 8.667746)"><g><path d="M 1.859375 -3.71875 C 2.023438 -3.96875 2.226562 -4.160156 2.46875 -4.296875 C 2.707031 -4.441406 2.972656 -4.515625 3.265625 -4.515625 L 3.265625 -3.0625 L 2.890625 -3.0625 C 2.546875 -3.0625 2.285156 -2.988281 2.109375 -2.84375 C 1.941406 -2.695312 1.859375 -2.441406 1.859375 -2.078125 L 1.859375 0 L 0.5 0 L 0.5 -4.46875 L 1.859375 -4.46875 Z M 1.859375 -3.71875 "/></g></g></g><g fill="#054c5b" fill-opacity="1"><g transform="translate(59.817302, 8.667746)"><g><path d="M 2.5 -1.28125 L 3.46875 -4.46875 L 4.921875 -4.46875 L 3.34375 0 L 1.65625 0 L 0.078125 -4.46875 L 1.53125 -4.46875 Z M 2.5 -1.28125 "/></g></g></g><g fill="#054c5b" fill-opacity="1"><g transform="translate(65.5343, 8.667746)"><g><path d="M 4.703125 -2.296875 C 4.703125 -2.171875 4.695312 -2.039062 4.6875 -1.90625 L 1.578125 -1.90625 C 1.597656 -1.625 1.6875 -1.410156 1.84375 -1.265625 C 2.007812 -1.117188 2.207031 -1.046875 2.4375 -1.046875 C 2.769531 -1.046875 3.003906 -1.191406 3.140625 -1.484375 L 4.59375 -1.484375 C 4.519531 -1.191406 4.382812 -0.925781 4.1875 -0.6875 C 4 -0.457031 3.757812 -0.273438 3.46875 -0.140625 C 3.175781 -0.00390625 2.847656 0.0625 2.484375 0.0625 C 2.046875 0.0625 1.65625 -0.03125 1.3125 -0.21875 C 0.96875 -0.40625 0.695312 -0.671875 0.5 -1.015625 C 0.3125 -1.359375 0.21875 -1.765625 0.21875 -2.234375 C 0.21875 -2.691406 0.3125 -3.09375 0.5 -3.4375 C 0.695312 -3.789062 0.960938 -4.0625 1.296875 -4.25 C 1.640625 -4.4375 2.035156 -4.53125 2.484375 -4.53125 C 2.910156 -4.53125 3.289062 -4.4375 3.625 -4.25 C 3.96875 -4.070312 4.234375 -3.8125 4.421875 -3.46875 C 4.609375 -3.132812 4.703125 -2.742188 4.703125 -2.296875 Z M 3.296875 -2.65625 C 3.296875 -2.894531 3.21875 -3.082031 3.0625 -3.21875 C 2.90625 -3.363281 2.707031 -3.4375 2.46875 -3.4375 C 2.238281 -3.4375 2.039062 -3.367188 1.875 -3.234375 C 1.71875 -3.097656 1.625 -2.90625 1.59375 -2.65625 Z M 3.296875 -2.65625 "/></g></g></g><g fill="#054c5b" fill-opacity="1"><g transform="translate(71.171344, 8.667746)"><g><path d="M 1.140625 0.0625 C 0.898438 0.0625 0.703125 -0.00390625 0.546875 -0.140625 C 0.390625 -0.285156 0.3125 -0.460938 0.3125 -0.671875 C 0.3125 -0.878906 0.390625 -1.054688 0.546875 -1.203125 C 0.703125 -1.347656 0.898438 -1.421875 1.140625 -1.421875 C 1.367188 -1.421875 1.554688 -1.347656 1.703125 -1.203125 C 1.859375 -1.054688 1.9375 -0.878906 1.9375 -0.671875 C 1.9375 -0.460938 1.859375 -0.285156 1.703125 -0.140625 C 1.554688 -0.00390625 1.367188 0.0625 1.140625 0.0625 Z M 1.140625 0.0625 "/></g></g></g><g fill="#054c5b" fill-opacity="1"><g transform="translate(74.137777, 8.667746)"><g/></g></g><g fill="#054c5b" fill-opacity="1"><g transform="translate(76.54451, 8.667746)"><g><path d="M 4.21875 -3.84375 C 4.125 -4.03125 3.976562 -4.171875 3.78125 -4.265625 C 3.59375 -4.367188 3.375 -4.421875 3.125 -4.421875 C 2.675781 -4.421875 2.316406 -4.273438 2.046875 -3.984375 C 1.785156 -3.691406 1.65625 -3.300781 1.65625 -2.8125 C 1.65625 -2.300781 1.796875 -1.898438 2.078125 -1.609375 C 2.359375 -1.316406 2.742188 -1.171875 3.234375 -1.171875 C 3.566406 -1.171875 3.847656 -1.253906 4.078125 -1.421875 C 4.316406 -1.597656 4.488281 -1.84375 4.59375 -2.15625 L 2.859375 -2.15625 L 2.859375 -3.171875 L 5.828125 -3.171875 L 5.828125 -1.890625 C 5.734375 -1.554688 5.5625 -1.238281 5.3125 -0.9375 C 5.070312 -0.644531 4.765625 -0.40625 4.390625 -0.21875 C 4.015625 -0.0390625 3.59375 0.046875 3.125 0.046875 C 2.570312 0.046875 2.078125 -0.0703125 1.640625 -0.3125 C 1.203125 -0.5625 0.863281 -0.898438 0.625 -1.328125 C 0.382812 -1.765625 0.265625 -2.257812 0.265625 -2.8125 C 0.265625 -3.363281 0.382812 -3.859375 0.625 -4.296875 C 0.863281 -4.734375 1.195312 -5.070312 1.625 -5.3125 C 2.0625 -5.5625 2.5625 -5.6875 3.125 -5.6875 C 3.789062 -5.6875 4.351562 -5.519531 4.8125 -5.1875 C 5.28125 -4.863281 5.585938 -4.414062 5.734375 -3.84375 Z M 4.21875 -3.84375 "/></g></g></g><g fill="#054c5b" fill-opacity="1"><g transform="translate(83.348933, 8.667746)"><g><path d="M 1.859375 -3.71875 C 2.023438 -3.96875 2.226562 -4.160156 2.46875 -4.296875 C 2.707031 -4.441406 2.972656 -4.515625 3.265625 -4.515625 L 3.265625 -3.0625 L 2.890625 -3.0625 C 2.546875 -3.0625 2.285156 -2.988281 2.109375 -2.84375 C 1.941406 -2.695312 1.859375 -2.441406 1.859375 -2.078125 L 1.859375 0 L 0.5 0 L 0.5 -4.46875 L 1.859375 -4.46875 Z M 1.859375 -3.71875 "/></g></g></g><g fill="#054c5b" fill-opacity="1"><g transform="translate(87.482757, 8.667746)"><g><path d="M 2.53125 0.0625 C 2.09375 0.0625 1.695312 -0.03125 1.34375 -0.21875 C 1 -0.40625 0.722656 -0.671875 0.515625 -1.015625 C 0.316406 -1.359375 0.21875 -1.765625 0.21875 -2.234375 C 0.21875 -2.691406 0.316406 -3.09375 0.515625 -3.4375 C 0.722656 -3.789062 1.003906 -4.0625 1.359375 -4.25 C 1.710938 -4.4375 2.109375 -4.53125 2.546875 -4.53125 C 2.984375 -4.53125 3.375 -4.4375 3.71875 -4.25 C 4.070312 -4.0625 4.347656 -3.789062 4.546875 -3.4375 C 4.753906 -3.09375 4.859375 -2.691406 4.859375 -2.234375 C 4.859375 -1.773438 4.753906 -1.367188 4.546875 -1.015625 C 4.347656 -0.671875 4.070312 -0.40625 3.71875 -0.21875 C 3.363281 -0.03125 2.96875 0.0625 2.53125 0.0625 Z M 2.53125 -1.125 C 2.789062 -1.125 3.007812 -1.21875 3.1875 -1.40625 C 3.375 -1.601562 3.46875 -1.878906 3.46875 -2.234375 C 3.46875 -2.585938 3.378906 -2.859375 3.203125 -3.046875 C 3.023438 -3.242188 2.804688 -3.34375 2.546875 -3.34375 C 2.273438 -3.34375 2.050781 -3.25 1.875 -3.0625 C 1.695312 -2.875 1.609375 -2.597656 1.609375 -2.234375 C 1.609375 -1.878906 1.695312 -1.601562 1.875 -1.40625 C 2.050781 -1.21875 2.269531 -1.125 2.53125 -1.125 Z M 2.53125 -1.125 "/></g></g></g><g fill="#054c5b" fill-opacity="1"><g transform="translate(93.287711, 8.667746)"><g><path d="M 6.90625 -4.46875 L 5.703125 0 L 4.1875 0 L 3.484375 -2.890625 L 2.75 0 L 1.25 0 L 0.03125 -4.46875 L 1.40625 -4.46875 L 2.03125 -1.265625 L 2.78125 -4.46875 L 4.234375 -4.46875 L 4.984375 -1.28125 L 5.609375 -4.46875 Z M 6.90625 -4.46875 "/></g></g></g><g fill="#054c5b" fill-opacity="1"><g transform="translate(100.923704, 8.667746)"><g><path d="M 1.140625 0.0625 C 0.898438 0.0625 0.703125 -0.00390625 0.546875 -0.140625 C 0.390625 -0.285156 0.3125 -0.460938 0.3125 -0.671875 C 0.3125 -0.878906 0.390625 -1.054688 0.546875 -1.203125 C 0.703125 -1.347656 0.898438 -1.421875 1.140625 -1.421875 C 1.367188 -1.421875 1.554688 -1.347656 1.703125 -1.203125 C 1.859375 -1.054688 1.9375 -0.878906 1.9375 -0.671875 C 1.9375 -0.460938 1.859375 -0.285156 1.703125 -0.140625 C 1.554688 -0.00390625 1.367188 0.0625 1.140625 0.0625 Z M 1.140625 0.0625 "/></g></g></g></g></g><g transform="matrix(1, 0, 0, 1, 112, 58)"><g clip-path="url(#578811e798)"><g fill="#054c5b" fill-opacity="1"><g transform="translate(0.694862, 5.579343)"><g><path d="M 1.84375 -3.5625 C 2.101562 -3.5625 2.320312 -3.515625 2.5 -3.421875 C 2.675781 -3.328125 2.8125 -3.195312 2.90625 -3.03125 C 3 -2.863281 3.046875 -2.671875 3.046875 -2.453125 C 3.046875 -2.222656 3 -2.023438 2.90625 -1.859375 C 2.8125 -1.691406 2.675781 -1.5625 2.5 -1.46875 C 2.320312 -1.375 2.101562 -1.328125 1.84375 -1.328125 L 1.171875 -1.328125 L 1.171875 0 L 0.46875 0 L 0.46875 -3.5625 Z M 1.75 -1.890625 C 2.144531 -1.890625 2.34375 -2.078125 2.34375 -2.453125 C 2.34375 -2.828125 2.144531 -3.015625 1.75 -3.015625 L 1.171875 -3.015625 L 1.171875 -1.890625 Z M 1.75 -1.890625 "/></g></g></g><g fill="#054c5b" fill-opacity="1"><g transform="translate(3.813311, 5.579343)"><g><path d="M 1.5625 0.046875 C 1.300781 0.046875 1.070312 -0.00390625 0.875 -0.109375 C 0.675781 -0.222656 0.519531 -0.382812 0.40625 -0.59375 C 0.289062 -0.800781 0.234375 -1.050781 0.234375 -1.34375 C 0.234375 -1.644531 0.289062 -1.898438 0.40625 -2.109375 C 0.519531 -2.316406 0.675781 -2.472656 0.875 -2.578125 C 1.070312 -2.691406 1.300781 -2.75 1.5625 -2.75 C 1.820312 -2.75 2.050781 -2.691406 2.25 -2.578125 C 2.457031 -2.472656 2.613281 -2.316406 2.71875 -2.109375 C 2.832031 -1.898438 2.890625 -1.644531 2.890625 -1.34375 C 2.890625 -1.050781 2.832031 -0.800781 2.71875 -0.59375 C 2.613281 -0.382812 2.457031 -0.222656 2.25 -0.109375 C 2.050781 -0.00390625 1.820312 0.046875 1.5625 0.046875 Z M 1.5625 -0.515625 C 1.976562 -0.515625 2.1875 -0.789062 2.1875 -1.34375 C 2.1875 -1.625 2.132812 -1.832031 2.03125 -1.96875 C 1.925781 -2.101562 1.769531 -2.171875 1.5625 -2.171875 C 1.144531 -2.171875 0.9375 -1.894531 0.9375 -1.34375 C 0.9375 -0.789062 1.144531 -0.515625 1.5625 -0.515625 Z M 1.5625 -0.515625 "/></g></g></g><g fill="#054c5b" fill-opacity="1"><g transform="translate(6.922001, 5.579343)"><g><path d="M 1.453125 0 L 0.734375 0 L 0.09375 -2.6875 L 0.71875 -2.6875 L 1.125 -0.875 L 1.171875 -0.875 L 1.6875 -2.6875 L 2.265625 -2.6875 L 2.796875 -0.875 L 2.859375 -0.875 L 3.234375 -2.6875 L 3.84375 -2.6875 L 3.203125 0 L 2.5 0 L 1.984375 -1.828125 L 1.9375 -1.828125 Z M 1.453125 0 "/></g></g></g><g fill="#054c5b" fill-opacity="1"><g transform="translate(10.838364, 5.579343)"><g><path d="M 2.65625 -1.1875 L 0.9375 -1.1875 C 0.945312 -0.957031 1.007812 -0.785156 1.125 -0.671875 C 1.238281 -0.566406 1.394531 -0.515625 1.59375 -0.515625 C 1.75 -0.515625 1.875 -0.546875 1.96875 -0.609375 C 2.0625 -0.671875 2.140625 -0.757812 2.203125 -0.875 L 2.25 -0.875 L 2.703125 -0.578125 C 2.617188 -0.390625 2.488281 -0.238281 2.3125 -0.125 C 2.132812 -0.0078125 1.894531 0.046875 1.59375 0.046875 C 1.3125 0.046875 1.070312 -0.00390625 0.875 -0.109375 C 0.675781 -0.210938 0.519531 -0.367188 0.40625 -0.578125 C 0.289062 -0.785156 0.234375 -1.039062 0.234375 -1.34375 C 0.234375 -1.644531 0.289062 -1.898438 0.40625 -2.109375 C 0.53125 -2.328125 0.6875 -2.488281 0.875 -2.59375 C 1.070312 -2.695312 1.296875 -2.75 1.546875 -2.75 C 1.929688 -2.75 2.222656 -2.644531 2.421875 -2.4375 C 2.628906 -2.238281 2.734375 -1.941406 2.734375 -1.546875 C 2.734375 -1.410156 2.726562 -1.300781 2.71875 -1.21875 Z M 2.078125 -1.625 C 2.078125 -1.832031 2.03125 -1.984375 1.9375 -2.078125 C 1.84375 -2.171875 1.710938 -2.21875 1.546875 -2.21875 C 1.203125 -2.21875 1 -2.019531 0.9375 -1.625 Z M 2.078125 -1.625 "/></g></g><g transform="translate(13.764046, 5.579343)"><g><path d="M 0.390625 0 L 0.390625 -2.6875 L 1.046875 -2.6875 L 1.046875 -2.296875 L 1.09375 -2.28125 C 1.15625 -2.425781 1.238281 -2.535156 1.34375 -2.609375 C 1.457031 -2.679688 1.585938 -2.71875 1.734375 -2.71875 C 1.890625 -2.71875 2.007812 -2.691406 2.09375 -2.640625 L 1.96875 -2.0625 L 1.921875 -2.046875 C 1.878906 -2.066406 1.835938 -2.078125 1.796875 -2.078125 C 1.753906 -2.085938 1.703125 -2.09375 1.640625 -2.09375 C 1.453125 -2.09375 1.304688 -2.023438 1.203125 -1.890625 C 1.109375 -1.765625 1.0625 -1.554688 1.0625 -1.265625 L 1.0625 0 Z M 0.390625 0 "/></g></g></g><g fill="#054c5b" fill-opacity="1"><g transform="translate(15.80397, 5.579343)"><g><path d="M 2.65625 -1.1875 L 0.9375 -1.1875 C 0.945312 -0.957031 1.007812 -0.785156 1.125 -0.671875 C 1.238281 -0.566406 1.394531 -0.515625 1.59375 -0.515625 C 1.75 -0.515625 1.875 -0.546875 1.96875 -0.609375 C 2.0625 -0.671875 2.140625 -0.757812 2.203125 -0.875 L 2.25 -0.875 L 2.703125 -0.578125 C 2.617188 -0.390625 2.488281 -0.238281 2.3125 -0.125 C 2.132812 -0.0078125 1.894531 0.046875 1.59375 0.046875 C 1.3125 0.046875 1.070312 -0.00390625 0.875 -0.109375 C 0.675781 -0.210938 0.519531 -0.367188 0.40625 -0.578125 C 0.289062 -0.785156 0.234375 -1.039062 0.234375 -1.34375 C 0.234375 -1.644531 0.289062 -1.898438 0.40625 -2.109375 C 0.53125 -2.328125 0.6875 -2.488281 0.875 -2.59375 C 1.070312 -2.695312 1.296875 -2.75 1.546875 -2.75 C 1.929688 -2.75 2.222656 -2.644531 2.421875 -2.4375 C 2.628906 -2.238281 2.734375 -1.941406 2.734375 -1.546875 C 2.734375 -1.410156 2.726562 -1.300781 2.71875 -1.21875 Z M 2.078125 -1.625 C 2.078125 -1.832031 2.03125 -1.984375 1.9375 -2.078125 C 1.84375 -2.171875 1.710938 -2.21875 1.546875 -2.21875 C 1.203125 -2.21875 1 -2.019531 0.9375 -1.625 Z M 2.078125 -1.625 "/></g></g><g transform="translate(18.729652, 5.579343)"><g><path d="M 1.328125 0.046875 C 1.117188 0.046875 0.929688 -0.00390625 0.765625 -0.109375 C 0.597656 -0.210938 0.46875 -0.367188 0.375 -0.578125 C 0.28125 -0.785156 0.234375 -1.039062 0.234375 -1.34375 C 0.234375 -1.65625 0.28125 -1.914062 0.375 -2.125 C 0.476562 -2.332031 0.613281 -2.488281 0.78125 -2.59375 C 0.945312 -2.695312 1.140625 -2.75 1.359375 -2.75 C 1.523438 -2.75 1.671875 -2.71875 1.796875 -2.65625 C 1.921875 -2.601562 2.023438 -2.515625 2.109375 -2.390625 L 2.15625 -2.40625 L 2.15625 -3.78125 L 2.84375 -3.78125 L 2.84375 0 L 2.15625 0 L 2.15625 -0.34375 L 2.109375 -0.359375 C 2.035156 -0.234375 1.929688 -0.132812 1.796875 -0.0625 C 1.671875 0.0078125 1.515625 0.046875 1.328125 0.046875 Z M 1.546875 -0.515625 C 1.742188 -0.515625 1.894531 -0.582031 2 -0.71875 C 2.113281 -0.863281 2.171875 -1.070312 2.171875 -1.34375 C 2.171875 -1.625 2.113281 -1.832031 2 -1.96875 C 1.894531 -2.101562 1.742188 -2.171875 1.546875 -2.171875 C 1.347656 -2.171875 1.195312 -2.101562 1.09375 -1.96875 C 0.988281 -1.832031 0.9375 -1.625 0.9375 -1.34375 C 0.9375 -1.0625 0.988281 -0.851562 1.09375 -0.71875 C 1.195312 -0.582031 1.347656 -0.515625 1.546875 -0.515625 Z M 1.546875 -0.515625 "/></g></g><g transform="translate(21.955466, 5.579343)"><g/></g><g transform="translate(23.134035, 5.579343)"><g><path d="M 0.46875 0 L 0.46875 -3.5625 L 1.984375 -3.5625 C 2.203125 -3.5625 2.390625 -3.523438 2.546875 -3.453125 C 2.703125 -3.390625 2.816406 -3.296875 2.890625 -3.171875 C 2.972656 -3.046875 3.015625 -2.894531 3.015625 -2.71875 C 3.015625 -2.5625 2.972656 -2.421875 2.890625 -2.296875 C 2.816406 -2.179688 2.707031 -2.085938 2.5625 -2.015625 L 2.5625 -1.953125 C 2.789062 -1.898438 2.960938 -1.796875 3.078125 -1.640625 C 3.203125 -1.484375 3.265625 -1.289062 3.265625 -1.0625 C 3.265625 -0.726562 3.160156 -0.46875 2.953125 -0.28125 C 2.753906 -0.09375 2.453125 0 2.046875 0 Z M 1.84375 -2.140625 C 2.164062 -2.140625 2.328125 -2.289062 2.328125 -2.59375 C 2.328125 -2.738281 2.285156 -2.847656 2.203125 -2.921875 C 2.128906 -3.003906 2.007812 -3.046875 1.84375 -3.046875 L 1.171875 -3.046875 L 1.171875 -2.140625 Z M 1.96875 -0.5625 C 2.351562 -0.5625 2.546875 -0.738281 2.546875 -1.09375 C 2.546875 -1.445312 2.351562 -1.625 1.96875 -1.625 L 1.171875 -1.625 L 1.171875 -0.5625 Z M 1.96875 -0.5625 "/></g></g><g transform="translate(26.623381, 5.579343)"><g><path d="M 0.59375 1.140625 C 0.476562 1.140625 0.375 1.128906 0.28125 1.109375 C 0.1875 1.097656 0.109375 1.078125 0.046875 1.046875 L 0.15625 0.5 L 0.203125 0.484375 C 0.242188 0.503906 0.296875 0.519531 0.359375 0.53125 C 0.421875 0.539062 0.484375 0.546875 0.546875 0.546875 C 0.648438 0.546875 0.738281 0.53125 0.8125 0.5 C 0.882812 0.476562 0.945312 0.429688 1 0.359375 C 1.050781 0.296875 1.097656 0.207031 1.140625 0.09375 L 0.0625 -2.6875 L 0.765625 -2.6875 L 1.4375 -0.828125 L 1.5 -0.828125 L 2.140625 -2.6875 L 2.828125 -2.6875 L 1.75 0.171875 C 1.664062 0.398438 1.570312 0.582031 1.46875 0.71875 C 1.363281 0.863281 1.238281 0.96875 1.09375 1.03125 C 0.957031 1.101562 0.789062 1.140625 0.59375 1.140625 Z M 0.59375 1.140625 "/></g></g><g transform="translate(29.512461, 5.579343)"><g/></g><g transform="translate(30.69103, 5.579343)"><g><path d="M 3.421875 0 L 2.6875 0 L 2.421875 -0.828125 L 1.046875 -0.828125 L 0.78125 0 L 0.046875 0 L 1.28125 -3.5625 L 2.1875 -3.5625 Z M 1.703125 -2.828125 L 1.234375 -1.421875 L 2.21875 -1.421875 L 1.765625 -2.828125 Z M 1.703125 -2.828125 "/></g></g></g><g fill="#054c5b" fill-opacity="1"><g transform="translate(34.065691, 5.579343)"><g><path d="M 1.859375 0 L 1.046875 0 L 0.046875 -2.6875 L 0.765625 -2.6875 L 1.421875 -0.78125 L 1.484375 -0.78125 L 2.15625 -2.6875 L 2.84375 -2.6875 Z M 1.859375 0 "/></g></g><g transform="translate(36.959651, 5.579343)"><g><path d="M 0.71875 -3.015625 C 0.601562 -3.015625 0.503906 -3.050781 0.421875 -3.125 C 0.347656 -3.195312 0.3125 -3.289062 0.3125 -3.40625 C 0.3125 -3.53125 0.347656 -3.628906 0.421875 -3.703125 C 0.503906 -3.773438 0.601562 -3.8125 0.71875 -3.8125 C 0.800781 -3.8125 0.875 -3.789062 0.9375 -3.75 C 1 -3.71875 1.046875 -3.671875 1.078125 -3.609375 C 1.117188 -3.554688 1.140625 -3.488281 1.140625 -3.40625 C 1.140625 -3.332031 1.117188 -3.265625 1.078125 -3.203125 C 1.046875 -3.148438 1 -3.101562 0.9375 -3.0625 C 0.875 -3.03125 0.800781 -3.015625 0.71875 -3.015625 Z M 0.390625 0 L 0.390625 -2.6875 L 1.0625 -2.6875 L 1.0625 0 Z M 0.390625 0 "/></g></g><g transform="translate(38.409071, 5.579343)"><g><path d="M 0.390625 0 L 0.390625 -2.6875 L 1.03125 -2.6875 L 1.03125 -2.296875 L 1.09375 -2.28125 C 1.257812 -2.59375 1.53125 -2.75 1.90625 -2.75 C 2.21875 -2.75 2.445312 -2.660156 2.59375 -2.484375 C 2.738281 -2.316406 2.8125 -2.070312 2.8125 -1.75 L 2.8125 0 L 2.125 0 L 2.125 -1.671875 C 2.125 -1.847656 2.085938 -1.972656 2.015625 -2.046875 C 1.953125 -2.128906 1.84375 -2.171875 1.6875 -2.171875 C 1.488281 -2.171875 1.332031 -2.109375 1.21875 -1.984375 C 1.113281 -1.859375 1.0625 -1.660156 1.0625 -1.390625 L 1.0625 0 Z M 0.390625 0 "/></g></g><g transform="translate(41.561683, 5.579343)"><g><path d="M 1.046875 0.046875 C 0.878906 0.046875 0.726562 0.015625 0.59375 -0.046875 C 0.46875 -0.109375 0.367188 -0.203125 0.296875 -0.328125 C 0.234375 -0.453125 0.203125 -0.597656 0.203125 -0.765625 C 0.203125 -0.921875 0.234375 -1.050781 0.296875 -1.15625 C 0.367188 -1.269531 0.476562 -1.359375 0.625 -1.421875 C 0.769531 -1.492188 0.957031 -1.550781 1.1875 -1.59375 C 1.34375 -1.625 1.460938 -1.648438 1.546875 -1.671875 C 1.640625 -1.703125 1.695312 -1.738281 1.71875 -1.78125 C 1.75 -1.820312 1.765625 -1.875 1.765625 -1.9375 C 1.765625 -2.019531 1.734375 -2.082031 1.671875 -2.125 C 1.617188 -2.175781 1.519531 -2.203125 1.375 -2.203125 C 1.226562 -2.203125 1.085938 -2.164062 0.953125 -2.09375 C 0.816406 -2.03125 0.695312 -1.945312 0.59375 -1.84375 L 0.546875 -1.84375 L 0.265625 -2.265625 C 0.398438 -2.410156 0.566406 -2.523438 0.765625 -2.609375 C 0.960938 -2.703125 1.175781 -2.75 1.40625 -2.75 C 1.769531 -2.75 2.03125 -2.671875 2.1875 -2.515625 C 2.34375 -2.367188 2.421875 -2.15625 2.421875 -1.875 L 2.421875 -0.703125 C 2.421875 -0.578125 2.472656 -0.515625 2.578125 -0.515625 C 2.617188 -0.515625 2.660156 -0.523438 2.703125 -0.546875 L 2.734375 -0.53125 L 2.78125 -0.0625 C 2.75 -0.0390625 2.695312 -0.0195312 2.625 0 C 2.5625 0.0078125 2.488281 0.015625 2.40625 0.015625 C 2.25 0.015625 2.125 -0.015625 2.03125 -0.078125 C 1.9375 -0.140625 1.875 -0.234375 1.84375 -0.359375 L 1.78125 -0.375 C 1.65625 -0.09375 1.410156 0.046875 1.046875 0.046875 Z M 1.265625 -0.453125 C 1.421875 -0.453125 1.546875 -0.503906 1.640625 -0.609375 C 1.734375 -0.710938 1.78125 -0.859375 1.78125 -1.046875 L 1.78125 -1.328125 L 1.734375 -1.328125 C 1.691406 -1.296875 1.632812 -1.269531 1.5625 -1.25 C 1.5 -1.226562 1.410156 -1.207031 1.296875 -1.1875 C 1.140625 -1.164062 1.03125 -1.125 0.96875 -1.0625 C 0.90625 -1 0.875 -0.914062 0.875 -0.8125 C 0.875 -0.695312 0.90625 -0.609375 0.96875 -0.546875 C 1.039062 -0.484375 1.140625 -0.453125 1.265625 -0.453125 Z M 1.265625 -0.453125 "/></g></g><g transform="translate(44.399521, 5.579343)"><g><path d="M 0.390625 0 L 0.390625 -2.6875 L 1.03125 -2.6875 L 1.03125 -2.328125 L 1.09375 -2.328125 C 1.175781 -2.472656 1.273438 -2.578125 1.390625 -2.640625 C 1.515625 -2.710938 1.664062 -2.75 1.84375 -2.75 C 2.050781 -2.75 2.21875 -2.707031 2.34375 -2.625 C 2.46875 -2.539062 2.554688 -2.421875 2.609375 -2.265625 L 2.65625 -2.265625 C 2.738281 -2.429688 2.847656 -2.550781 2.984375 -2.625 C 3.117188 -2.707031 3.28125 -2.75 3.46875 -2.75 C 4.03125 -2.75 4.3125 -2.4375 4.3125 -1.8125 L 4.3125 0 L 3.640625 0 L 3.640625 -1.71875 C 3.640625 -1.882812 3.609375 -2 3.546875 -2.0625 C 3.484375 -2.132812 3.382812 -2.171875 3.25 -2.171875 C 2.875 -2.171875 2.6875 -1.921875 2.6875 -1.421875 L 2.6875 0 L 2.015625 0 L 2.015625 -1.71875 C 2.015625 -1.882812 1.984375 -2 1.921875 -2.0625 C 1.859375 -2.132812 1.757812 -2.171875 1.625 -2.171875 C 1.445312 -2.171875 1.304688 -2.113281 1.203125 -2 C 1.109375 -1.882812 1.0625 -1.695312 1.0625 -1.4375 L 1.0625 0 Z M 0.390625 0 "/></g></g><g transform="translate(49.055235, 5.579343)"><g/></g><g transform="translate(50.233804, 5.579343)"><g><path d="M 1.734375 0.046875 C 1.429688 0.046875 1.171875 -0.0195312 0.953125 -0.15625 C 0.742188 -0.289062 0.578125 -0.492188 0.453125 -0.765625 C 0.335938 -1.035156 0.28125 -1.375 0.28125 -1.78125 C 0.28125 -2.1875 0.347656 -2.523438 0.484375 -2.796875 C 0.628906 -3.078125 0.828125 -3.285156 1.078125 -3.421875 C 1.328125 -3.554688 1.617188 -3.625 1.953125 -3.625 C 2.296875 -3.625 2.585938 -3.554688 2.828125 -3.421875 C 3.066406 -3.296875 3.238281 -3.109375 3.34375 -2.859375 L 2.828125 -2.546875 L 2.765625 -2.546875 C 2.691406 -2.710938 2.585938 -2.832031 2.453125 -2.90625 C 2.316406 -2.976562 2.148438 -3.015625 1.953125 -3.015625 C 1.648438 -3.015625 1.414062 -2.914062 1.25 -2.71875 C 1.09375 -2.519531 1.015625 -2.207031 1.015625 -1.78125 C 1.015625 -1.351562 1.085938 -1.039062 1.234375 -0.84375 C 1.390625 -0.644531 1.613281 -0.546875 1.90625 -0.546875 C 2.164062 -0.546875 2.351562 -0.601562 2.46875 -0.71875 C 2.59375 -0.84375 2.65625 -1.019531 2.65625 -1.25 L 2.65625 -1.390625 L 1.8125 -1.390625 L 1.8125 -1.96875 L 3.359375 -1.96875 L 3.359375 0 L 2.6875 0 L 2.6875 -0.484375 L 2.640625 -0.484375 C 2.566406 -0.316406 2.453125 -0.1875 2.296875 -0.09375 C 2.148438 0 1.960938 0.046875 1.734375 0.046875 Z M 1.734375 0.046875 "/></g></g><g transform="translate(53.954958, 5.579343)"><g><path d="M 1.125 0.046875 C 0.875 0.046875 0.6875 -0.015625 0.5625 -0.140625 C 0.4375 -0.273438 0.375 -0.476562 0.375 -0.75 L 0.375 -3.78125 L 1.046875 -3.78125 L 1.046875 -0.765625 C 1.046875 -0.597656 1.113281 -0.515625 1.25 -0.515625 C 1.289062 -0.515625 1.332031 -0.523438 1.375 -0.546875 L 1.40625 -0.53125 L 1.46875 -0.015625 C 1.4375 0.00390625 1.390625 0.0195312 1.328125 0.03125 C 1.265625 0.0390625 1.195312 0.046875 1.125 0.046875 Z M 1.125 0.046875 "/></g></g><g transform="translate(55.501983, 5.579343)"><g><path d="M 1.5625 0.046875 C 1.300781 0.046875 1.070312 -0.00390625 0.875 -0.109375 C 0.675781 -0.222656 0.519531 -0.382812 0.40625 -0.59375 C 0.289062 -0.800781 0.234375 -1.050781 0.234375 -1.34375 C 0.234375 -1.644531 0.289062 -1.898438 0.40625 -2.109375 C 0.519531 -2.316406 0.675781 -2.472656 0.875 -2.578125 C 1.070312 -2.691406 1.300781 -2.75 1.5625 -2.75 C 1.820312 -2.75 2.050781 -2.691406 2.25 -2.578125 C 2.457031 -2.472656 2.613281 -2.316406 2.71875 -2.109375 C 2.832031 -1.898438 2.890625 -1.644531 2.890625 -1.34375 C 2.890625 -1.050781 2.832031 -0.800781 2.71875 -0.59375 C 2.613281 -0.382812 2.457031 -0.222656 2.25 -0.109375 C 2.050781 -0.00390625 1.820312 0.046875 1.5625 0.046875 Z M 1.5625 -0.515625 C 1.976562 -0.515625 2.1875 -0.789062 2.1875 -1.34375 C 2.1875 -1.625 2.132812 -1.832031 2.03125 -1.96875 C 1.925781 -2.101562 1.769531 -2.171875 1.5625 -2.171875 C 1.144531 -2.171875 0.9375 -1.894531 0.9375 -1.34375 C 0.9375 -0.789062 1.144531 -0.515625 1.5625 -0.515625 Z M 1.5625 -0.515625 "/></g></g><g transform="translate(58.630193, 5.579343)"><g><path d="M 1.875 0.046875 C 1.539062 0.046875 1.285156 -0.078125 1.109375 -0.328125 L 1.0625 -0.328125 L 1.0625 0 L 0.390625 0 L 0.390625 -3.78125 L 1.0625 -3.78125 L 1.0625 -2.375 L 1.109375 -2.359375 C 1.203125 -2.492188 1.3125 -2.59375 1.4375 -2.65625 C 1.570312 -2.71875 1.722656 -2.75 1.890625 -2.75 C 2.109375 -2.75 2.300781 -2.695312 2.46875 -2.59375 C 2.632812 -2.488281 2.757812 -2.332031 2.84375 -2.125 C 2.9375 -1.914062 2.984375 -1.65625 2.984375 -1.34375 C 2.984375 -1.039062 2.9375 -0.785156 2.84375 -0.578125 C 2.75 -0.367188 2.617188 -0.210938 2.453125 -0.109375 C 2.285156 -0.00390625 2.09375 0.046875 1.875 0.046875 Z M 1.671875 -0.515625 C 1.867188 -0.515625 2.019531 -0.582031 2.125 -0.71875 C 2.226562 -0.851562 2.28125 -1.0625 2.28125 -1.34375 C 2.28125 -1.625 2.226562 -1.832031 2.125 -1.96875 C 2.019531 -2.101562 1.867188 -2.171875 1.671875 -2.171875 C 1.484375 -2.171875 1.332031 -2.101562 1.21875 -1.96875 C 1.113281 -1.832031 1.0625 -1.625 1.0625 -1.34375 C 1.0625 -1.070312 1.113281 -0.863281 1.21875 -0.71875 C 1.332031 -0.582031 1.484375 -0.515625 1.671875 -0.515625 Z M 1.671875 -0.515625 "/></g></g><g transform="translate(61.853567, 5.579343)"><g><path d="M 1.046875 0.046875 C 0.878906 0.046875 0.726562 0.015625 0.59375 -0.046875 C 0.46875 -0.109375 0.367188 -0.203125 0.296875 -0.328125 C 0.234375 -0.453125 0.203125 -0.597656 0.203125 -0.765625 C 0.203125 -0.921875 0.234375 -1.050781 0.296875 -1.15625 C 0.367188 -1.269531 0.476562 -1.359375 0.625 -1.421875 C 0.769531 -1.492188 0.957031 -1.550781 1.1875 -1.59375 C 1.34375 -1.625 1.460938 -1.648438 1.546875 -1.671875 C 1.640625 -1.703125 1.695312 -1.738281 1.71875 -1.78125 C 1.75 -1.820312 1.765625 -1.875 1.765625 -1.9375 C 1.765625 -2.019531 1.734375 -2.082031 1.671875 -2.125 C 1.617188 -2.175781 1.519531 -2.203125 1.375 -2.203125 C 1.226562 -2.203125 1.085938 -2.164062 0.953125 -2.09375 C 0.816406 -2.03125 0.695312 -1.945312 0.59375 -1.84375 L 0.546875 -1.84375 L 0.265625 -2.265625 C 0.398438 -2.410156 0.566406 -2.523438 0.765625 -2.609375 C 0.960938 -2.703125 1.175781 -2.75 1.40625 -2.75 C 1.769531 -2.75 2.03125 -2.671875 2.1875 -2.515625 C 2.34375 -2.367188 2.421875 -2.15625 2.421875 -1.875 L 2.421875 -0.703125 C 2.421875 -0.578125 2.472656 -0.515625 2.578125 -0.515625 C 2.617188 -0.515625 2.660156 -0.523438 2.703125 -0.546875 L 2.734375 -0.53125 L 2.78125 -0.0625 C 2.75 -0.0390625 2.695312 -0.0195312 2.625 0 C 2.5625 0.0078125 2.488281 0.015625 2.40625 0.015625 C 2.25 0.015625 2.125 -0.015625 2.03125 -0.078125 C 1.9375 -0.140625 1.875 -0.234375 1.84375 -0.359375 L 1.78125 -0.375 C 1.65625 -0.09375 1.410156 0.046875 1.046875 0.046875 Z M 1.265625 -0.453125 C 1.421875 -0.453125 1.546875 -0.503906 1.640625 -0.609375 C 1.734375 -0.710938 1.78125 -0.859375 1.78125 -1.046875 L 1.78125 -1.328125 L 1.734375 -1.328125 C 1.691406 -1.296875 1.632812 -1.269531 1.5625 -1.25 C 1.5 -1.226562 1.410156 -1.207031 1.296875 -1.1875 C 1.140625 -1.164062 1.03125 -1.125 0.96875 -1.0625 C 0.90625 -1 0.875 -0.914062 0.875 -0.8125 C 0.875 -0.695312 0.90625 -0.609375 0.96875 -0.546875 C 1.039062 -0.484375 1.140625 -0.453125 1.265625 -0.453125 Z M 1.265625 -0.453125 "/></g></g><g transform="translate(64.691405, 5.579343)"><g><path d="M 1.125 0.046875 C 0.875 0.046875 0.6875 -0.015625 0.5625 -0.140625 C 0.4375 -0.273438 0.375 -0.476562 0.375 -0.75 L 0.375 -3.78125 L 1.046875 -3.78125 L 1.046875 -0.765625 C 1.046875 -0.597656 1.113281 -0.515625 1.25 -0.515625 C 1.289062 -0.515625 1.332031 -0.523438 1.375 -0.546875 L 1.40625 -0.53125 L 1.46875 -0.015625 C 1.4375 0.00390625 1.390625 0.0195312 1.328125 0.03125 C 1.265625 0.0390625 1.195312 0.046875 1.125 0.046875 Z M 1.125 0.046875 "/></g></g></g><g fill="#054c5b" fill-opacity="1"><g transform="translate(66.239243, 5.579343)"><g/></g></g></g></g></svg>