<svg xmlns="http://www.w3.org/2000/svg" xmlns:xlink="http://www.w3.org/1999/xlink" width="500" zoomAndPan="magnify" viewBox="0 0 375 374.999991" height="500" preserveAspectRatio="xMidYMid meet" version="1.0"><defs><clipPath id="8168fc69de"><path d="M 162 105.097656 L 269.890625 105.097656 L 269.890625 213 L 162 213 Z M 162 105.097656 " clip-rule="nonzero"/></clipPath><clipPath id="9ddfd72b12"><path d="M 104.890625 162 L 213 162 L 213 270 L 104.890625 270 Z M 104.890625 162 " clip-rule="nonzero"/></clipPath><clipPath id="5b402212b8"><path d="M 169 156.449219 L 213.613281 156.449219 L 213.613281 219.863281 L 169 219.863281 Z M 169 156.449219 " clip-rule="nonzero"/></clipPath><clipPath id="bd90f43862"><path d="M 161.113281 168 L 210 168 L 210 200 L 161.113281 200 Z M 161.113281 168 " clip-rule="nonzero"/></clipPath></defs><g clip-path="url(#8168fc69de)"><path fill="#12b5a6" d="M 270.101562 187.65625 C 270.101562 201.347656 259.019531 212.429688 245.328125 212.429688 L 194.59375 212.429688 C 177.054688 212.429688 162.816406 198.1875 162.816406 180.652344 L 162.816406 129.914062 C 162.816406 116.222656 173.894531 105.144531 187.585938 105.144531 C 201.277344 105.144531 212.359375 116.222656 212.359375 129.914062 L 212.359375 162.882812 L 245.328125 162.882812 C 259.019531 162.882812 270.101562 174.011719 270.101562 187.65625 Z M 270.101562 187.65625 " fill-opacity="1" fill-rule="nonzero"/></g><g clip-path="url(#9ddfd72b12)"><path fill="#0893b0" d="M 104.890625 187.335938 C 104.890625 173.644531 115.972656 162.5625 129.664062 162.5625 L 180.398438 162.5625 C 197.9375 162.5625 212.175781 176.804688 212.175781 194.34375 L 212.175781 245.078125 C 212.175781 258.769531 201.09375 269.851562 187.402344 269.851562 C 173.710938 269.851562 162.632812 258.769531 162.632812 245.078125 L 162.632812 212.109375 L 129.664062 212.109375 C 115.972656 212.109375 104.890625 201.027344 104.890625 187.335938 Z M 104.890625 187.335938 " fill-opacity="1" fill-rule="nonzero"/></g><path fill="#065f71" d="M 212.175781 194.34375 L 212.175781 212.429688 L 194.59375 212.429688 C 177.054688 212.429688 162.816406 198.1875 162.816406 180.652344 L 162.816406 162.5625 L 180.398438 162.5625 C 197.9375 162.5625 212.175781 176.804688 212.175781 194.34375 Z M 212.175781 194.34375 " fill-opacity="1" fill-rule="nonzero"/><g clip-path="url(#5b402212b8)"><path fill="#ffffff" d="M 176.691406 215.804688 C 169.445312 208.34375 183.523438 182.523438 208.511719 156.449219 C 202.488281 159.894531 196.191406 164.648438 190.226562 170.511719 C 172.382812 188.027344 164.214844 208.714844 171.980469 216.710938 C 179.105469 224.042969 197.164062 218.148438 213.875 203.601562 C 196.386719 215.832031 181.828125 221.09375 176.691406 215.804688 " fill-opacity="1" fill-rule="nonzero"/></g><g clip-path="url(#bd90f43862)"><path fill="#ffffff" d="M 177.703125 168.183594 C 171.621094 168.183594 165.941406 169.0625 161.113281 170.585938 C 164.535156 169.9375 168.230469 169.582031 172.09375 169.582031 C 189.609375 169.582031 203.8125 176.871094 203.8125 185.855469 C 203.8125 191.722656 197.757812 196.863281 188.683594 199.726562 C 200.789062 197.433594 209.421875 191.464844 209.421875 184.457031 C 209.421875 175.46875 195.222656 168.183594 177.703125 168.183594 " fill-opacity="1" fill-rule="nonzero"/></g><path fill="#ffffff" d="M 190.21875 162.5625 C 190.21875 164.527344 188.632812 166.121094 186.679688 166.121094 C 184.726562 166.121094 183.140625 164.527344 183.140625 162.5625 C 183.140625 160.597656 184.726562 159.003906 186.679688 159.003906 C 188.632812 159.003906 190.21875 160.597656 190.21875 162.5625 " fill-opacity="1" fill-rule="nonzero"/></svg>